<svg width="450" height="47" viewBox="0 0 450 47" fill="none" xmlns="http://www.w3.org/2000/svg">
<rect x="19" y="45.0001" width="27" height="429" rx="7" transform="rotate(-90 19 45.0001)" stroke="white" stroke-width="4"/>
<rect width="3.9074" height="25.3981" rx="1.9537" transform="matrix(-0.782285 0.622921 -0.782285 -0.622921 48.4427 42.8338)" fill="white"/>
<rect width="3.9074" height="25.3981" rx="1.9537" transform="matrix(-0.782285 0.622921 -0.782285 -0.622921 73.6163 42.8338)" fill="white"/>
<rect width="3.9074" height="25.3981" rx="1.9537" transform="matrix(-0.782285 0.622921 -0.782285 -0.622921 98.7899 42.8338)" fill="white"/>
<rect width="3.9074" height="25.3981" rx="1.9537" transform="matrix(-0.782285 0.622921 -0.782285 -0.622921 123.963 42.8338)" fill="white"/>
<rect width="3.9074" height="25.3981" rx="1.9537" transform="matrix(-0.782285 0.622921 -0.782285 -0.622921 149.137 42.8338)" fill="white"/>
<rect width="3.9074" height="25.3981" rx="1.9537" transform="matrix(-0.782285 0.622921 -0.782285 -0.622921 174.31 42.8338)" fill="white"/>
<rect width="3.9074" height="25.3981" rx="1.9537" transform="matrix(-0.782285 0.622921 -0.782285 -0.622921 199.484 42.8338)" fill="white"/>
<rect width="3.9074" height="25.3981" rx="1.9537" transform="matrix(-0.782285 0.622921 -0.782285 -0.622921 224.658 42.8338)" fill="white"/>
<rect width="3.9074" height="25.3981" rx="1.9537" transform="matrix(-0.782285 0.622921 -0.782285 -0.622921 249.831 42.8338)" fill="white"/>
<rect width="3.9074" height="25.3981" rx="1.9537" transform="matrix(-0.782285 0.622921 -0.782285 -0.622921 275.004 42.8338)" fill="white"/>
<rect width="3.9074" height="25.3981" rx="1.9537" transform="matrix(-0.782285 0.622921 -0.782285 -0.622921 300.178 42.8338)" fill="white"/>
<rect width="3.9074" height="25.3981" rx="1.9537" transform="matrix(-0.782285 0.622921 -0.782285 -0.622921 325.351 42.8338)" fill="white"/>
<rect width="3.9074" height="25.3981" rx="1.9537" transform="matrix(-0.782285 0.622921 -0.782285 -0.622921 350.068 42.8641)" fill="white"/>
<rect width="3.9074" height="25.3981" rx="1.9537" transform="matrix(-0.782285 0.622921 -0.782285 -0.622921 375.241 42.8641)" fill="white"/>
<rect width="3.9074" height="25.3981" rx="1.9537" transform="matrix(-0.782285 0.622921 -0.782285 -0.622921 399.657 43.6234)" fill="white"/>
<rect width="3.9074" height="25.3981" rx="1.9537" transform="matrix(-0.782285 0.622921 -0.782285 -0.622921 424.83 43.6234)" fill="white"/>
<rect width="3.94157" height="35.8021" rx="1.97078" transform="matrix(-0.857167 0.515038 -0.693128 -0.720814 445.679 43.7075)" fill="white"/>
<path d="M446.546 25.048C448.055 26.6171 447.765 28.798 445.899 29.9192V29.9192L435.629 19.2385L439.008 17.2085L446.546 25.048Z" fill="white"/>
<rect x="1" y="32.0001" width="31" height="428" rx="5" transform="rotate(-90 1 32.0001)" fill="white" stroke="white"/>
</svg>
