<svg width="61" height="60" viewBox="0 0 61 60" fill="none" xmlns="http://www.w3.org/2000/svg">
<circle cx="30.5398" cy="30.354" r="28.146" stroke="#000B26" stroke-width="3"/>
<rect x="28.0912" y="58.2459" width="2.37168" height="16.0942" rx="1.18584" transform="rotate(135 28.0912 58.2459)" fill="#000B26"/>
<rect x="37.5779" y="57.653" width="2.37168" height="20.1593" rx="1.18584" transform="rotate(135 37.5779 57.653)" fill="#000B26"/>
<rect x="44.6929" y="54.6884" width="2.37168" height="20.1593" rx="1.18584" transform="rotate(135 44.6929 54.6884)" fill="#000B26"/>
<rect x="51.2151" y="50.538" width="2.37168" height="20.1593" rx="1.18584" transform="rotate(135 51.2151 50.538)" fill="#000B26"/>
<rect x="55.9584" y="44.0158" width="2.37168" height="20.1593" rx="1.18584" transform="rotate(135 55.9584 44.0158)" fill="#000B26"/>
<rect x="59.5159" y="36.3079" width="2.37168" height="20.1593" rx="1.18584" transform="rotate(135 59.5159 36.3079)" fill="#000B26"/>
<rect x="60.1089" y="26.2282" width="2.37168" height="20.1593" rx="1.18584" transform="rotate(135 60.1089 26.2282)" fill="#000B26"/>
</svg>
