<svg width="69" height="67" viewBox="0 0 69 67" fill="none" xmlns="http://www.w3.org/2000/svg">
<circle cx="29.646" cy="29.646" r="29.646" fill="white"/>
<circle cx="38.5398" cy="37.354" r="28.146" stroke="white" stroke-width="3"/>
<rect x="36.0912" y="65.2459" width="2.37168" height="16.0942" rx="1.18584" transform="rotate(135 36.0912 65.2459)" fill="white"/>
<rect x="45.5779" y="64.653" width="2.37168" height="20.1593" rx="1.18584" transform="rotate(135 45.5779 64.653)" fill="white"/>
<rect x="52.6929" y="61.6884" width="2.37168" height="20.1593" rx="1.18584" transform="rotate(135 52.6929 61.6884)" fill="white"/>
<rect x="59.2151" y="57.538" width="2.37168" height="20.1593" rx="1.18584" transform="rotate(135 59.2151 57.538)" fill="white"/>
<rect x="63.9584" y="51.0158" width="2.37168" height="20.1593" rx="1.18584" transform="rotate(135 63.9584 51.0158)" fill="white"/>
<rect x="67.5159" y="43.3079" width="2.37168" height="20.1593" rx="1.18584" transform="rotate(135 67.5159 43.3079)" fill="white"/>
<rect x="68.1089" y="33.2282" width="2.37168" height="20.1593" rx="1.18584" transform="rotate(135 68.1089 33.2282)" fill="white"/>
</svg>
