<svg width="193" height="191" viewBox="0 0 193 191" fill="none" xmlns="http://www.w3.org/2000/svg">
<path d="M14.4354 95.3527C14.4354 50.2355 51.3139 13.5399 96.64 13.5399C111.231 13.5399 124.935 17.3607 136.838 24.0233L143.35 12.1788C129.496 4.42061 113.912 0.233947 98.0159 0H96.456C43.7782 0.0795999 1.07598 42.2437 0.5 94.5806V95.496C0.511421 108.503 3.1963 121.371 8.38959 133.307C13.5829 145.244 21.1748 155.998 30.6987 164.907L40.1783 154.718C32.0474 147.09 25.5695 137.888 21.1426 127.678C16.7157 117.468 14.4333 106.465 14.4354 95.3448V95.3527ZM163.389 27.0799L154.158 36.9503C161.981 44.5539 168.197 53.638 172.44 63.6679C176.682 73.6977 178.865 84.4707 178.861 95.3527C178.861 140.454 141.982 177.15 96.656 177.15C82.3926 177.15 68.9771 173.52 57.2816 167.136L50.4499 179.251C64.5591 186.964 80.3978 191.005 96.496 191C149.502 191 192.5 148.231 192.5 95.4801C192.496 82.7212 189.918 70.0931 184.919 58.3438C179.919 46.5945 172.601 35.9633 163.397 27.0799M16.2033 95.3527C16.2029 106.227 18.435 116.987 22.7626 126.972C27.0903 136.957 33.4223 145.957 41.3703 153.421L50.8099 143.264C44.2735 137.094 39.0683 129.664 35.5117 121.426C31.9551 113.189 30.1215 104.318 30.1228 95.3527C30.1228 58.8482 59.9615 29.1654 96.64 29.1654C108.503 29.1654 119.639 32.2778 129.295 37.7224L135.974 25.5755C123.974 18.8321 110.422 15.2971 96.64 15.315C52.2978 15.2991 16.2033 51.2146 16.2033 95.3527ZM163.157 95.3527C163.157 131.857 133.318 161.54 96.64 161.54C85.5689 161.553 74.6715 158.803 64.9453 153.54L58.1296 165.608C69.9357 172.038 83.1808 175.403 96.64 175.39C140.982 175.39 177.077 139.475 177.077 95.3527C177.077 73.0011 167.821 52.7907 152.95 38.2557L143.486 48.3968C149.729 54.5363 154.683 61.8489 158.061 69.9097C161.439 77.9706 163.166 86.6191 163.157 95.3527ZM147.582 95.3527C147.569 108.785 142.2 121.664 132.654 131.162C123.107 140.659 110.164 146 96.664 146.01C88.271 146.019 80.0075 143.951 72.617 139.992L65.8333 151.988C75.2937 157.108 85.8948 159.782 96.664 159.765C132.375 159.765 161.421 130.87 161.421 95.3368C161.427 86.844 159.74 78.4344 156.458 70.5945C153.177 62.7545 148.365 55.64 142.302 49.6624L132.87 59.7477C142.298 69.2234 147.585 82.0191 147.582 95.3527ZM31.9147 95.3527C31.9147 113.669 39.6504 130.233 52.0339 141.982L61.4175 131.873C56.4591 127.156 52.5133 121.488 49.8184 115.211C47.1235 108.934 45.7354 102.179 45.7381 95.3527C45.7508 81.9214 51.1186 69.0439 60.6633 59.5465C70.208 50.0492 83.1498 44.708 96.648 44.6954C105.471 44.6893 114.142 46.9807 121.799 51.342L128.439 39.2666C118.745 33.7975 107.792 30.9232 96.648 30.9246C60.9615 30.9246 31.9147 59.8193 31.9147 95.3527ZM132.151 95.3527C132.148 104.721 128.407 113.704 121.749 120.327C115.091 126.95 106.062 130.671 96.648 130.671C90.903 130.674 85.2441 129.283 80.1607 126.62L73.481 138.464C80.604 142.269 88.5637 144.257 96.648 144.251C109.677 144.238 122.169 139.083 131.383 129.915C140.596 120.748 145.777 108.317 145.79 95.3527C145.798 82.5148 140.716 70.1921 131.647 61.0611L122.351 71.0111C128.638 77.5711 132.144 86.2882 132.143 95.3527M47.498 95.3527C47.4936 101.935 48.8297 108.449 51.4255 114.503C54.0214 120.557 57.8232 126.024 62.6014 130.576L71.857 120.626L71.969 120.737C68.5387 117.453 65.8104 113.513 63.9477 109.153C62.0851 104.794 61.1265 100.106 61.1295 95.3687C61.1284 90.7303 62.0458 86.1371 63.8292 81.8516C65.6126 77.5661 68.2271 73.6722 71.5232 70.3924C74.8194 67.1126 78.7327 64.5111 83.0396 62.7365C87.3465 60.962 91.9625 60.0491 96.624 60.0502C102.855 60.0469 108.975 61.6895 114.359 64.8103L120.919 52.8862C113.523 48.6723 105.147 46.4602 96.624 46.4704C69.5531 46.4306 47.498 68.3843 47.498 95.3527ZM100.936 95.3527C100.869 96.4413 100.387 97.4635 99.5891 98.2108C98.7908 98.9581 97.736 99.3742 96.64 99.3742C95.544 99.3742 94.4892 98.9581 93.6909 98.2108C92.8926 97.4635 92.411 96.4413 92.3442 95.3527C92.3442 94.218 92.7972 93.1298 93.6036 92.3274C94.4099 91.525 95.5036 91.0742 96.644 91.0742C97.7844 91.0742 98.8781 91.525 99.6844 92.3274C100.491 93.1298 100.936 94.218 100.936 95.3527ZM69.4251 95.3527C69.4251 88.1739 72.2911 81.289 77.3927 76.2128C82.4942 71.1366 89.4133 68.2848 96.628 68.2848C103.843 68.2848 110.762 71.1366 115.863 76.2128C120.965 81.289 123.831 88.1739 123.831 95.3527C123.831 102.531 120.965 109.414 115.864 114.49C110.764 119.565 103.846 122.417 96.632 122.417C89.4184 122.417 82.5003 119.565 77.3995 114.49C72.2987 109.414 69.4251 102.531 69.4251 95.3527ZM70.6251 95.3527C70.6335 102.216 73.3771 108.795 78.254 113.648C83.1309 118.5 89.743 121.23 96.64 121.239C103.54 121.237 110.158 118.509 115.039 113.655C119.919 108.802 122.665 102.219 122.671 95.3527C122.671 88.4853 119.929 81.8991 115.049 77.043C110.169 72.187 103.55 69.4589 96.648 69.4589C89.7463 69.4589 83.1273 72.187 78.247 77.043C73.3668 81.8991 70.6251 88.4853 70.6251 95.3527Z" fill="white"/>
</svg>
