<svg width="121" height="121" viewBox="0 0 121 121" fill="none" xmlns="http://www.w3.org/2000/svg">
<rect x="119.586" y="34.8077" width="119.894" height="34.8766" rx="4" transform="rotate(135 119.586 34.8077)" stroke="#000B26" stroke-width="2"/>
<rect x="111.808" y="44.0001" width="36.8766" height="4" transform="rotate(-135 111.808 44.0001)" fill="#000B26"/>
<rect x="104.116" y="51.6914" width="36.8766" height="4" transform="rotate(-135 104.116 51.6914)" fill="#000B26"/>
<rect x="96.425" y="59.3827" width="36.8766" height="4" transform="rotate(-135 96.425 59.3827)" fill="#000B26"/>
<rect x="87.3195" y="68.4882" width="36.8766" height="6" transform="rotate(-135 87.3195 68.4882)" fill="#000B26"/>
<rect x="79.6282" y="76.1795" width="36.8766" height="4" transform="rotate(-135 79.6282 76.1795)" fill="#000B26"/>
<rect x="71.9369" y="83.8708" width="36.8766" height="4" transform="rotate(-135 71.9369 83.8708)" fill="#000B26"/>
<rect x="64.2456" y="91.5621" width="36.8766" height="4" transform="rotate(-135 64.2456 91.5621)" fill="#000B26"/>
<rect x="56.5542" y="99.2534" width="36.8766" height="4" transform="rotate(-135 56.5542 99.2534)" fill="#000B26"/>
<rect x="48.8629" y="106.945" width="36.8766" height="4" transform="rotate(-135 48.8629 106.945)" fill="#000B26"/>
<rect x="41.1716" y="114.636" width="36.8766" height="4" transform="rotate(-135 41.1716 114.636)" fill="#000B26"/>
<rect x="94.9243" y="119.586" width="89.238" height="34.8766" rx="4" transform="rotate(-135 94.9243 119.586)" stroke="#000B26" stroke-width="2"/>
<rect x="101.995" y="113.929" width="91.238" height="4" transform="rotate(-135 101.995 113.929)" fill="#000B26"/>
<rect x="111.101" y="104.824" width="91.238" height="4" transform="rotate(-135 111.101 104.824)" fill="#000B26"/>
<rect x="25.2384" y="112.268" width="35.6927" height="123.078" rx="5" transform="rotate(-135 25.2384 112.268)" fill="#000B26"/>
<rect x="112.268" y="87.0295" width="35.6927" height="123.078" rx="5" transform="rotate(135 112.268 87.0295)" fill="#000B26"/>
</svg>
