<svg width="450" height="47" viewBox="0 0 450 47" fill="none" xmlns="http://www.w3.org/2000/svg">
<rect x="19" y="45" width="27" height="429" rx="7" transform="rotate(-90 19 45)" stroke="#FF3C3C" stroke-width="4"/>
<rect width="3.9074" height="25.3981" rx="1.9537" transform="matrix(-0.782285 0.622921 -0.782285 -0.622921 48.4427 42.9585)" fill="#FF3C3C"/>
<rect width="3.9074" height="25.3981" rx="1.9537" transform="matrix(-0.782285 0.622921 -0.782285 -0.622921 73.6163 42.9585)" fill="#FF3C3C"/>
<rect width="3.9074" height="25.3981" rx="1.9537" transform="matrix(-0.782285 0.622921 -0.782285 -0.622921 98.7899 42.9585)" fill="#FF3C3C"/>
<rect width="3.9074" height="25.3981" rx="1.9537" transform="matrix(-0.782285 0.622921 -0.782285 -0.622921 123.963 42.9585)" fill="#FF3C3C"/>
<rect width="3.9074" height="25.3981" rx="1.9537" transform="matrix(-0.782285 0.622921 -0.782285 -0.622921 149.137 42.9585)" fill="#FF3C3C"/>
<rect width="3.9074" height="25.3981" rx="1.9537" transform="matrix(-0.782285 0.622921 -0.782285 -0.622921 174.31 42.9585)" fill="#FF3C3C"/>
<rect width="3.9074" height="25.3981" rx="1.9537" transform="matrix(-0.782285 0.622921 -0.782285 -0.622921 199.484 42.9585)" fill="#FF3C3C"/>
<rect width="3.9074" height="25.3981" rx="1.9537" transform="matrix(-0.782285 0.622921 -0.782285 -0.622921 224.658 42.9585)" fill="#FF3C3C"/>
<rect width="3.9074" height="25.3981" rx="1.9537" transform="matrix(-0.782285 0.622921 -0.782285 -0.622921 249.831 42.9585)" fill="#FF3C3C"/>
<rect width="3.9074" height="25.3981" rx="1.9537" transform="matrix(-0.782285 0.622921 -0.782285 -0.622921 275.004 42.9585)" fill="#FF3C3C"/>
<rect width="3.9074" height="25.3981" rx="1.9537" transform="matrix(-0.782285 0.622921 -0.782285 -0.622921 300.178 42.9585)" fill="#FF3C3C"/>
<rect width="3.9074" height="25.3981" rx="1.9537" transform="matrix(-0.782285 0.622921 -0.782285 -0.622921 325.351 42.9585)" fill="#FF3C3C"/>
<rect width="3.9074" height="25.3981" rx="1.9537" transform="matrix(-0.782285 0.622921 -0.782285 -0.622921 350.068 42.9889)" fill="#FF3C3C"/>
<rect width="3.9074" height="25.3981" rx="1.9537" transform="matrix(-0.782285 0.622921 -0.782285 -0.622921 375.241 42.9889)" fill="#FF3C3C"/>
<rect width="3.9074" height="25.3981" rx="1.9537" transform="matrix(-0.782285 0.622921 -0.782285 -0.622921 399.657 43.7482)" fill="#FF3C3C"/>
<rect width="3.9074" height="25.3981" rx="1.9537" transform="matrix(-0.782285 0.622921 -0.782285 -0.622921 424.83 43.7482)" fill="#FF3C3C"/>
<rect width="3.94157" height="35.8021" rx="1.97078" transform="matrix(-0.857167 0.515038 -0.693128 -0.720814 445.679 43.8322)" fill="#FF3C3C"/>
<path d="M446.546 25.1728C448.055 26.7419 447.765 28.9228 445.899 30.044V30.044L434.986 18.6947L438.365 16.6646L446.546 25.1728Z" fill="#FF3C3C"/>
<rect x="1" y="32" width="31" height="428" rx="5" transform="rotate(-90 1 32)" fill="#FF3C3C" stroke="#FF3C3C"/>
</svg>
